<?xml version="1.0" encoding="UTF-8"?>
<svg xmlns="http://www.w3.org/2000/svg" xmlns:xlink="http://www.w3.org/1999/xlink" width="2000.16" height="2000.16" viewBox="0 0 2000.16 2000.16">
<defs>
<clipPath id="clip-0">
<path clip-rule="nonzero" d="M 1007 983 L 1353 983 L 1353 1085 L 1007 1085 Z M 1007 983 "/>
</clipPath>
<clipPath id="clip-1">
<path clip-rule="evenodd" d="M 1007.351562 937.328125 L 1352.808594 984.761719 L 1350.109375 1590.628906 L 1007.351562 1638.410156 Z M 1007.351562 937.328125 "/>
</clipPath>
<clipPath id="clip-2">
<path clip-rule="nonzero" d="M 1007 1073 L 1353 1073 L 1353 1141 L 1007 1141 Z M 1007 1073 "/>
</clipPath>
<clipPath id="clip-3">
<path clip-rule="evenodd" d="M 1007.351562 937.328125 L 1352.808594 984.761719 L 1350.109375 1590.628906 L 1007.351562 1638.410156 Z M 1007.351562 937.328125 "/>
</clipPath>
<clipPath id="clip-4">
<path clip-rule="nonzero" d="M 1295 1106 L 1314 1106 L 1314 1126 L 1295 1126 Z M 1295 1106 "/>
</clipPath>
<clipPath id="clip-5">
<path clip-rule="evenodd" d="M 1007.351562 937.328125 L 1352.808594 984.761719 L 1350.109375 1590.628906 L 1007.351562 1638.410156 Z M 1007.351562 937.328125 "/>
</clipPath>
<clipPath id="clip-6">
<path clip-rule="nonzero" d="M 1192 1100 L 1212 1100 L 1212 1120 L 1192 1120 Z M 1192 1100 "/>
</clipPath>
<clipPath id="clip-7">
<path clip-rule="evenodd" d="M 1007.351562 937.328125 L 1352.808594 984.761719 L 1350.109375 1590.628906 L 1007.351562 1638.410156 Z M 1007.351562 937.328125 "/>
</clipPath>
<clipPath id="clip-8">
<path clip-rule="nonzero" d="M 1072 1090 L 1092 1090 L 1092 1110 L 1072 1110 Z M 1072 1090 "/>
</clipPath>
<clipPath id="clip-9">
<path clip-rule="evenodd" d="M 1007.351562 937.328125 L 1352.808594 984.761719 L 1350.109375 1590.628906 L 1007.351562 1638.410156 Z M 1007.351562 937.328125 "/>
</clipPath>
<clipPath id="clip-10">
<path clip-rule="nonzero" d="M 661 983 L 1008 983 L 1008 1085 L 661 1085 Z M 661 983 "/>
</clipPath>
<clipPath id="clip-11">
<path clip-rule="evenodd" d="M 1007.351562 937.328125 L 661.894531 984.761719 L 664.597656 1590.628906 L 1007.351562 1638.410156 Z M 1007.351562 937.328125 "/>
</clipPath>
<clipPath id="clip-12">
<path clip-rule="nonzero" d="M 661 1073 L 1008 1073 L 1008 1141 L 661 1141 Z M 661 1073 "/>
</clipPath>
<clipPath id="clip-13">
<path clip-rule="evenodd" d="M 1007.351562 937.328125 L 661.894531 984.761719 L 664.597656 1590.628906 L 1007.351562 1638.410156 Z M 1007.351562 937.328125 "/>
</clipPath>
<clipPath id="clip-14">
<path clip-rule="nonzero" d="M 683 1351 L 806 1351 L 806 1587 L 683 1587 Z M 683 1351 "/>
</clipPath>
<clipPath id="clip-15">
<path clip-rule="evenodd" d="M 1007.351562 937.328125 L 661.894531 984.761719 L 664.597656 1590.628906 L 1007.351562 1638.410156 Z M 1007.351562 937.328125 "/>
</clipPath>
<clipPath id="clip-16">
<path clip-rule="nonzero" d="M 694 1352 L 797 1352 L 797 1575 L 694 1575 Z M 694 1352 "/>
</clipPath>
<clipPath id="clip-17">
<path clip-rule="evenodd" d="M 1007.351562 937.328125 L 661.894531 984.761719 L 664.597656 1590.628906 L 1007.351562 1638.410156 Z M 1007.351562 937.328125 "/>
</clipPath>
<clipPath id="clip-18">
<path clip-rule="nonzero" d="M 674 1090 L 815 1090 L 815 1500 L 674 1500 Z M 674 1090 "/>
</clipPath>
<clipPath id="clip-19">
<path clip-rule="evenodd" d="M 1007.351562 937.328125 L 661.894531 984.761719 L 664.597656 1590.628906 L 1007.351562 1638.410156 Z M 1007.351562 937.328125 "/>
</clipPath>
<clipPath id="clip-20">
<path clip-rule="nonzero" d="M 738 1103 L 758 1103 L 758 1123 L 738 1123 Z M 738 1103 "/>
</clipPath>
<clipPath id="clip-21">
<path clip-rule="evenodd" d="M 1007.351562 937.328125 L 661.894531 984.761719 L 664.597656 1590.628906 L 1007.351562 1638.410156 Z M 1007.351562 937.328125 "/>
</clipPath>
<clipPath id="clip-22">
<path clip-rule="nonzero" d="M 803 1100 L 823 1100 L 823 1120 L 803 1120 Z M 803 1100 "/>
</clipPath>
<clipPath id="clip-23">
<path clip-rule="evenodd" d="M 1007.351562 937.328125 L 661.894531 984.761719 L 664.597656 1590.628906 L 1007.351562 1638.410156 Z M 1007.351562 937.328125 "/>
</clipPath>
<clipPath id="clip-24">
<path clip-rule="nonzero" d="M 922 1090 L 942 1090 L 942 1110 L 922 1110 Z M 922 1090 "/>
</clipPath>
<clipPath id="clip-25">
<path clip-rule="evenodd" d="M 1007.351562 937.328125 L 661.894531 984.761719 L 664.597656 1590.628906 L 1007.351562 1638.410156 Z M 1007.351562 937.328125 "/>
</clipPath>
</defs>
<path fill-rule="evenodd" fill="rgb(100%, 92.1875%, 76.5625%)" fill-opacity="1" d="M 1755.988281 1234.003906 L 249.664062 1234.003906 L 249.664062 1416.015625 L 1755.988281 1416.015625 L 1755.988281 1234.003906 "/>
<path fill-rule="evenodd" fill="rgb(100%, 92.1875%, 76.5625%)" fill-opacity="1" d="M 272.996094 1218.785156 L 255.78125 1218.785156 L 255.78125 1234.003906 L 272.996094 1234.003906 L 272.996094 1218.785156 "/>
<path fill-rule="evenodd" fill="rgb(100%, 92.1875%, 76.5625%)" fill-opacity="1" d="M 300.667969 1218.785156 L 283.453125 1218.785156 L 283.453125 1234.003906 L 300.667969 1234.003906 L 300.667969 1218.785156 "/>
<path fill-rule="evenodd" fill="rgb(100%, 92.1875%, 76.5625%)" fill-opacity="1" d="M 328.179688 1218.785156 L 310.960938 1218.785156 L 310.960938 1234.003906 L 328.179688 1234.003906 L 328.179688 1218.785156 "/>
<path fill-rule="evenodd" fill="rgb(100%, 92.1875%, 76.5625%)" fill-opacity="1" d="M 355.6875 1218.785156 L 338.472656 1218.785156 L 338.472656 1234.003906 L 355.6875 1234.003906 L 355.6875 1218.785156 "/>
<path fill-rule="evenodd" fill="rgb(100%, 92.1875%, 76.5625%)" fill-opacity="1" d="M 383.195312 1218.785156 L 365.980469 1218.785156 L 365.980469 1234.003906 L 383.195312 1234.003906 L 383.195312 1218.785156 "/>
<path fill-rule="evenodd" fill="rgb(100%, 92.1875%, 76.5625%)" fill-opacity="1" d="M 410.703125 1218.785156 L 393.488281 1218.785156 L 393.488281 1234.003906 L 410.703125 1234.003906 L 410.703125 1218.785156 "/>
<path fill-rule="evenodd" fill="rgb(100%, 92.1875%, 76.5625%)" fill-opacity="1" d="M 438.214844 1218.785156 L 420.996094 1218.785156 L 420.996094 1234.003906 L 438.214844 1234.003906 L 438.214844 1218.785156 "/>
<path fill-rule="evenodd" fill="rgb(100%, 92.1875%, 76.5625%)" fill-opacity="1" d="M 465.722656 1218.785156 L 448.507812 1218.785156 L 448.507812 1234.003906 L 465.722656 1234.003906 L 465.722656 1218.785156 "/>
<path fill-rule="evenodd" fill="rgb(100%, 92.1875%, 76.5625%)" fill-opacity="1" d="M 493.230469 1218.785156 L 476.015625 1218.785156 L 476.015625 1234.003906 L 493.230469 1234.003906 L 493.230469 1218.785156 "/>
<path fill-rule="evenodd" fill="rgb(100%, 92.1875%, 76.5625%)" fill-opacity="1" d="M 520.738281 1218.785156 L 503.523438 1218.785156 L 503.523438 1234.003906 L 520.738281 1234.003906 L 520.738281 1218.785156 "/>
<path fill-rule="evenodd" fill="rgb(100%, 92.1875%, 76.5625%)" fill-opacity="1" d="M 548.25 1218.785156 L 531.03125 1218.785156 L 531.03125 1234.003906 L 548.25 1234.003906 L 548.25 1218.785156 "/>
<path fill-rule="evenodd" fill="rgb(100%, 92.1875%, 76.5625%)" fill-opacity="1" d="M 575.757812 1218.785156 L 558.539062 1218.785156 L 558.539062 1234.003906 L 575.757812 1234.003906 L 575.757812 1218.785156 "/>
<path fill-rule="evenodd" fill="rgb(100%, 92.1875%, 76.5625%)" fill-opacity="1" d="M 603.265625 1218.785156 L 586.050781 1218.785156 L 586.050781 1234.003906 L 603.265625 1234.003906 L 603.265625 1218.785156 "/>
<path fill-rule="evenodd" fill="rgb(100%, 92.1875%, 76.5625%)" fill-opacity="1" d="M 630.773438 1218.785156 L 613.558594 1218.785156 L 613.558594 1234.003906 L 630.773438 1234.003906 L 630.773438 1218.785156 "/>
<path fill-rule="evenodd" fill="rgb(100%, 92.1875%, 76.5625%)" fill-opacity="1" d="M 658.285156 1218.785156 L 641.066406 1218.785156 L 641.066406 1234.003906 L 658.285156 1234.003906 L 658.285156 1218.785156 "/>
<path fill-rule="evenodd" fill="rgb(100%, 92.1875%, 76.5625%)" fill-opacity="1" d="M 685.792969 1218.785156 L 668.574219 1218.785156 L 668.574219 1234.003906 L 685.792969 1234.003906 L 685.792969 1218.785156 "/>
<path fill-rule="evenodd" fill="rgb(100%, 92.1875%, 76.5625%)" fill-opacity="1" d="M 1336.058594 1218.785156 L 1318.839844 1218.785156 L 1318.839844 1234.003906 L 1336.058594 1234.003906 L 1336.058594 1218.785156 "/>
<path fill-rule="evenodd" fill="rgb(100%, 92.1875%, 76.5625%)" fill-opacity="1" d="M 1363.730469 1218.785156 L 1346.511719 1218.785156 L 1346.511719 1234.003906 L 1363.730469 1234.003906 L 1363.730469 1218.785156 "/>
<path fill-rule="evenodd" fill="rgb(100%, 92.1875%, 76.5625%)" fill-opacity="1" d="M 1391.238281 1218.785156 L 1374.019531 1218.785156 L 1374.019531 1234.003906 L 1391.238281 1234.003906 L 1391.238281 1218.785156 "/>
<path fill-rule="evenodd" fill="rgb(100%, 92.1875%, 76.5625%)" fill-opacity="1" d="M 1418.75 1218.785156 L 1401.53125 1218.785156 L 1401.53125 1234.003906 L 1418.75 1234.003906 L 1418.75 1218.785156 "/>
<path fill-rule="evenodd" fill="rgb(100%, 92.1875%, 76.5625%)" fill-opacity="1" d="M 1446.261719 1218.785156 L 1429.039062 1218.785156 L 1429.039062 1234.003906 L 1446.261719 1234.003906 L 1446.261719 1218.785156 "/>
<path fill-rule="evenodd" fill="rgb(100%, 92.1875%, 76.5625%)" fill-opacity="1" d="M 1473.769531 1218.785156 L 1456.550781 1218.785156 L 1456.550781 1234.003906 L 1473.769531 1234.003906 L 1473.769531 1218.785156 "/>
<path fill-rule="evenodd" fill="rgb(100%, 92.1875%, 76.5625%)" fill-opacity="1" d="M 1501.269531 1218.785156 L 1484.058594 1218.785156 L 1484.058594 1234.003906 L 1501.269531 1234.003906 L 1501.269531 1218.785156 "/>
<path fill-rule="evenodd" fill="rgb(100%, 92.1875%, 76.5625%)" fill-opacity="1" d="M 1528.78125 1218.785156 L 1511.570312 1218.785156 L 1511.570312 1234.003906 L 1528.78125 1234.003906 L 1528.78125 1218.785156 "/>
<path fill-rule="evenodd" fill="rgb(100%, 92.1875%, 76.5625%)" fill-opacity="1" d="M 1556.289062 1218.785156 L 1539.078125 1218.785156 L 1539.078125 1234.003906 L 1556.289062 1234.003906 L 1556.289062 1218.785156 "/>
<path fill-rule="evenodd" fill="rgb(100%, 92.1875%, 76.5625%)" fill-opacity="1" d="M 1583.800781 1218.785156 L 1566.578125 1218.785156 L 1566.578125 1234.003906 L 1583.800781 1234.003906 L 1583.800781 1218.785156 "/>
<path fill-rule="evenodd" fill="rgb(100%, 92.1875%, 76.5625%)" fill-opacity="1" d="M 1611.308594 1218.785156 L 1594.089844 1218.785156 L 1594.089844 1234.003906 L 1611.308594 1234.003906 L 1611.308594 1218.785156 "/>
<path fill-rule="evenodd" fill="rgb(100%, 92.1875%, 76.5625%)" fill-opacity="1" d="M 1638.820312 1218.785156 L 1621.601562 1218.785156 L 1621.601562 1234.003906 L 1638.820312 1234.003906 L 1638.820312 1218.785156 "/>
<path fill-rule="evenodd" fill="rgb(100%, 92.1875%, 76.5625%)" fill-opacity="1" d="M 1666.328125 1218.785156 L 1649.109375 1218.785156 L 1649.109375 1234.003906 L 1666.328125 1234.003906 L 1666.328125 1218.785156 "/>
<path fill-rule="evenodd" fill="rgb(100%, 92.1875%, 76.5625%)" fill-opacity="1" d="M 1693.839844 1218.785156 L 1676.621094 1218.785156 L 1676.621094 1234.003906 L 1693.839844 1234.003906 L 1693.839844 1218.785156 "/>
<path fill-rule="evenodd" fill="rgb(100%, 92.1875%, 76.5625%)" fill-opacity="1" d="M 1721.339844 1218.785156 L 1704.128906 1218.785156 L 1704.128906 1234.003906 L 1721.339844 1234.003906 L 1721.339844 1218.785156 "/>
<path fill-rule="evenodd" fill="rgb(100%, 92.1875%, 76.5625%)" fill-opacity="1" d="M 1748.851562 1218.785156 L 1731.640625 1218.785156 L 1731.640625 1234.003906 L 1748.851562 1234.003906 L 1748.851562 1218.785156 "/>
<path fill-rule="evenodd" fill="rgb(22.996521%, 22.093201%, 21.508789%)" fill-opacity="1" d="M 277.296875 1322.617188 L 272.332031 1322.617188 L 272.332031 1342.605469 L 277.296875 1342.605469 L 277.296875 1416.015625 L 358.515625 1416.015625 L 358.515625 1342.605469 L 363.613281 1342.605469 L 363.613281 1322.617188 L 358.515625 1322.617188 L 358.515625 1304.589844 C 362.101562 1293.558594 327.695312 1257.171875 316.128906 1254.863281 C 315.816406 1254.800781 300.996094 1264.128906 290.242188 1277.140625 C 279.859375 1289.699219 277.296875 1304.589844 277.296875 1304.589844 L 277.296875 1322.617188 "/>
<path fill-rule="evenodd" fill="rgb(22.996521%, 22.093201%, 21.508789%)" fill-opacity="1" d="M 1340.359375 1322.617188 L 1335.390625 1322.617188 L 1335.390625 1342.605469 L 1340.359375 1342.605469 L 1340.359375 1416.015625 L 1421.578125 1416.015625 L 1421.578125 1342.605469 L 1426.679688 1342.605469 L 1426.679688 1322.617188 L 1421.578125 1322.617188 L 1421.578125 1304.589844 C 1425.160156 1293.558594 1390.761719 1257.171875 1379.191406 1254.863281 C 1378.878906 1254.800781 1364.058594 1264.128906 1353.300781 1277.140625 C 1342.921875 1289.699219 1340.359375 1304.589844 1340.359375 1304.589844 L 1340.359375 1322.617188 "/>
<path fill-rule="evenodd" fill="rgb(22.996521%, 22.093201%, 21.508789%)" fill-opacity="1" d="M 380.796875 1322.617188 L 375.835938 1322.617188 L 375.835938 1342.605469 L 380.796875 1342.605469 L 380.796875 1416.015625 L 462.019531 1416.015625 L 462.019531 1342.605469 L 467.117188 1342.605469 L 467.117188 1322.617188 L 462.019531 1322.617188 L 462.019531 1304.589844 C 465.601562 1293.558594 431.195312 1257.171875 419.628906 1254.863281 C 419.320312 1254.800781 404.496094 1264.128906 393.742188 1277.140625 C 383.359375 1289.699219 380.796875 1304.589844 380.796875 1304.589844 L 380.796875 1322.617188 "/>
<path fill-rule="evenodd" fill="rgb(22.996521%, 22.093201%, 21.508789%)" fill-opacity="1" d="M 1443.859375 1322.617188 L 1438.890625 1322.617188 L 1438.890625 1342.605469 L 1443.859375 1342.605469 L 1443.859375 1416.015625 L 1525.078125 1416.015625 L 1525.078125 1342.605469 L 1530.179688 1342.605469 L 1530.179688 1322.617188 L 1525.078125 1322.617188 L 1525.078125 1304.589844 C 1528.660156 1293.558594 1494.261719 1257.171875 1482.691406 1254.863281 C 1482.378906 1254.800781 1467.558594 1264.128906 1456.800781 1277.140625 C 1446.421875 1289.699219 1443.859375 1304.589844 1443.859375 1304.589844 L 1443.859375 1322.617188 "/>
<path fill-rule="evenodd" fill="rgb(22.996521%, 22.093201%, 21.508789%)" fill-opacity="1" d="M 484.296875 1322.617188 L 479.335938 1322.617188 L 479.335938 1342.605469 L 484.296875 1342.605469 L 484.296875 1416.015625 L 565.519531 1416.015625 L 565.519531 1342.605469 L 570.617188 1342.605469 L 570.617188 1322.617188 L 565.519531 1322.617188 L 565.519531 1304.589844 C 569.101562 1293.558594 534.695312 1257.171875 523.132812 1254.863281 C 522.820312 1254.800781 507.996094 1264.128906 497.242188 1277.140625 C 486.863281 1289.699219 484.296875 1304.589844 484.296875 1304.589844 L 484.296875 1322.617188 "/>
<path fill-rule="evenodd" fill="rgb(22.996521%, 22.093201%, 21.508789%)" fill-opacity="1" d="M 1547.359375 1322.617188 L 1542.398438 1322.617188 L 1542.398438 1342.605469 L 1547.359375 1342.605469 L 1547.359375 1416.015625 L 1628.578125 1416.015625 L 1628.578125 1342.605469 L 1633.679688 1342.605469 L 1633.679688 1322.617188 L 1628.578125 1322.617188 L 1628.578125 1304.589844 C 1632.160156 1293.558594 1597.761719 1257.171875 1586.191406 1254.863281 C 1585.878906 1254.800781 1571.058594 1264.128906 1560.300781 1277.140625 C 1549.921875 1289.699219 1547.359375 1304.589844 1547.359375 1304.589844 L 1547.359375 1322.617188 "/>
<path fill-rule="evenodd" fill="rgb(22.996521%, 22.093201%, 21.508789%)" fill-opacity="1" d="M 587.796875 1322.617188 L 582.835938 1322.617188 L 582.835938 1342.605469 L 587.796875 1342.605469 L 587.796875 1416.015625 L 669.019531 1416.015625 L 669.019531 1342.605469 L 674.117188 1342.605469 L 674.117188 1322.617188 L 669.019531 1322.617188 L 669.019531 1304.589844 C 672.601562 1293.558594 638.195312 1257.171875 626.632812 1254.863281 C 626.320312 1254.800781 611.5 1264.128906 600.746094 1277.140625 C 590.363281 1289.699219 587.796875 1304.589844 587.796875 1304.589844 L 587.796875 1322.617188 "/>
<path fill-rule="evenodd" fill="rgb(22.996521%, 22.093201%, 21.508789%)" fill-opacity="1" d="M 1650.859375 1322.617188 L 1645.898438 1322.617188 L 1645.898438 1342.605469 L 1650.859375 1342.605469 L 1650.859375 1416.015625 L 1732.078125 1416.015625 L 1732.078125 1342.605469 L 1737.179688 1342.605469 L 1737.179688 1322.617188 L 1732.078125 1322.617188 L 1732.078125 1304.589844 C 1735.660156 1293.558594 1701.261719 1257.171875 1689.691406 1254.863281 C 1689.378906 1254.800781 1674.558594 1264.128906 1663.808594 1277.140625 C 1653.421875 1289.699219 1650.859375 1304.589844 1650.859375 1304.589844 L 1650.859375 1322.617188 "/>
<path fill-rule="evenodd" fill="rgb(100%, 92.1875%, 76.5625%)" fill-opacity="1" d="M 1822.941406 1400.394531 L 191.769531 1400.394531 L 191.769531 1582.402344 L 1822.941406 1582.402344 L 1822.941406 1400.394531 "/>
<path fill-rule="evenodd" fill="rgb(100%, 92.1875%, 76.5625%)" fill-opacity="1" d="M 217.039062 1385.175781 L 198.394531 1385.175781 L 198.394531 1400.394531 L 217.039062 1400.394531 L 217.039062 1385.175781 "/>
<path fill-rule="evenodd" fill="rgb(100%, 92.1875%, 76.5625%)" fill-opacity="1" d="M 247.003906 1385.175781 L 228.359375 1385.175781 L 228.359375 1400.394531 L 247.003906 1400.394531 L 247.003906 1385.175781 "/>
<path fill-rule="evenodd" fill="rgb(100%, 92.1875%, 76.5625%)" fill-opacity="1" d="M 276.789062 1385.175781 L 258.148438 1385.175781 L 258.148438 1400.394531 L 276.789062 1400.394531 L 276.789062 1385.175781 "/>
<path fill-rule="evenodd" fill="rgb(100%, 92.1875%, 76.5625%)" fill-opacity="1" d="M 306.578125 1385.175781 L 287.9375 1385.175781 L 287.9375 1400.394531 L 306.578125 1400.394531 L 306.578125 1385.175781 "/>
<path fill-rule="evenodd" fill="rgb(100%, 92.1875%, 76.5625%)" fill-opacity="1" d="M 336.367188 1385.175781 L 317.722656 1385.175781 L 317.722656 1400.394531 L 336.367188 1400.394531 L 336.367188 1385.175781 "/>
<path fill-rule="evenodd" fill="rgb(100%, 92.1875%, 76.5625%)" fill-opacity="1" d="M 366.15625 1385.175781 L 347.511719 1385.175781 L 347.511719 1400.394531 L 366.15625 1400.394531 L 366.15625 1385.175781 "/>
<path fill-rule="evenodd" fill="rgb(100%, 92.1875%, 76.5625%)" fill-opacity="1" d="M 395.945312 1385.175781 L 377.300781 1385.175781 L 377.300781 1400.394531 L 395.945312 1400.394531 L 395.945312 1385.175781 "/>
<path fill-rule="evenodd" fill="rgb(100%, 92.1875%, 76.5625%)" fill-opacity="1" d="M 425.734375 1385.175781 L 407.089844 1385.175781 L 407.089844 1400.394531 L 425.734375 1400.394531 L 425.734375 1385.175781 "/>
<path fill-rule="evenodd" fill="rgb(100%, 92.1875%, 76.5625%)" fill-opacity="1" d="M 455.523438 1385.175781 L 436.878906 1385.175781 L 436.878906 1400.394531 L 455.523438 1400.394531 L 455.523438 1385.175781 "/>
<path fill-rule="evenodd" fill="rgb(100%, 92.1875%, 76.5625%)" fill-opacity="1" d="M 485.3125 1385.175781 L 466.667969 1385.175781 L 466.667969 1400.394531 L 485.3125 1400.394531 L 485.3125 1385.175781 "/>
<path fill-rule="evenodd" fill="rgb(100%, 92.1875%, 76.5625%)" fill-opacity="1" d="M 515.097656 1385.175781 L 496.457031 1385.175781 L 496.457031 1400.394531 L 515.097656 1400.394531 L 515.097656 1385.175781 "/>
<path fill-rule="evenodd" fill="rgb(100%, 92.1875%, 76.5625%)" fill-opacity="1" d="M 544.886719 1385.175781 L 526.242188 1385.175781 L 526.242188 1400.394531 L 544.886719 1400.394531 L 544.886719 1385.175781 "/>
<path fill-rule="evenodd" fill="rgb(100%, 92.1875%, 76.5625%)" fill-opacity="1" d="M 574.675781 1385.175781 L 556.03125 1385.175781 L 556.03125 1400.394531 L 574.675781 1400.394531 L 574.675781 1385.175781 "/>
<path fill-rule="evenodd" fill="rgb(100%, 92.1875%, 76.5625%)" fill-opacity="1" d="M 604.464844 1385.175781 L 585.820312 1385.175781 L 585.820312 1400.394531 L 604.464844 1400.394531 L 604.464844 1385.175781 "/>
<path fill-rule="evenodd" fill="rgb(100%, 92.1875%, 76.5625%)" fill-opacity="1" d="M 634.253906 1385.175781 L 615.609375 1385.175781 L 615.609375 1400.394531 L 634.253906 1400.394531 L 634.253906 1385.175781 "/>
<path fill-rule="evenodd" fill="rgb(100%, 92.1875%, 76.5625%)" fill-opacity="1" d="M 664.042969 1385.175781 L 645.398438 1385.175781 L 645.398438 1400.394531 L 664.042969 1400.394531 L 664.042969 1385.175781 "/>
<path fill-rule="evenodd" fill="rgb(100%, 92.1875%, 76.5625%)" fill-opacity="1" d="M 1368.199219 1385.175781 L 1349.550781 1385.175781 L 1349.550781 1400.394531 L 1368.199219 1400.394531 L 1368.199219 1385.175781 "/>
<path fill-rule="evenodd" fill="rgb(100%, 92.1875%, 76.5625%)" fill-opacity="1" d="M 1398.160156 1385.175781 L 1379.519531 1385.175781 L 1379.519531 1400.394531 L 1398.160156 1400.394531 L 1398.160156 1385.175781 "/>
<path fill-rule="evenodd" fill="rgb(100%, 92.1875%, 76.5625%)" fill-opacity="1" d="M 1427.949219 1385.175781 L 1409.308594 1385.175781 L 1409.308594 1400.394531 L 1427.949219 1400.394531 L 1427.949219 1385.175781 "/>
<path fill-rule="evenodd" fill="rgb(100%, 92.1875%, 76.5625%)" fill-opacity="1" d="M 1457.738281 1385.175781 L 1439.101562 1385.175781 L 1439.101562 1400.394531 L 1457.738281 1400.394531 L 1457.738281 1385.175781 "/>
<path fill-rule="evenodd" fill="rgb(100%, 92.1875%, 76.5625%)" fill-opacity="1" d="M 1487.53125 1385.175781 L 1468.878906 1385.175781 L 1468.878906 1400.394531 L 1487.53125 1400.394531 L 1487.53125 1385.175781 "/>
<path fill-rule="evenodd" fill="rgb(100%, 92.1875%, 76.5625%)" fill-opacity="1" d="M 1517.320312 1385.175781 L 1498.671875 1385.175781 L 1498.671875 1400.394531 L 1517.320312 1400.394531 L 1517.320312 1385.175781 "/>
<path fill-rule="evenodd" fill="rgb(100%, 92.1875%, 76.5625%)" fill-opacity="1" d="M 1547.109375 1385.175781 L 1528.460938 1385.175781 L 1528.460938 1400.394531 L 1547.109375 1400.394531 L 1547.109375 1385.175781 "/>
<path fill-rule="evenodd" fill="rgb(100%, 92.1875%, 76.5625%)" fill-opacity="1" d="M 1576.890625 1385.175781 L 1558.25 1385.175781 L 1558.25 1400.394531 L 1576.890625 1400.394531 L 1576.890625 1385.175781 "/>
<path fill-rule="evenodd" fill="rgb(100%, 92.1875%, 76.5625%)" fill-opacity="1" d="M 1606.679688 1385.175781 L 1588.039062 1385.175781 L 1588.039062 1400.394531 L 1606.679688 1400.394531 L 1606.679688 1385.175781 "/>
<path fill-rule="evenodd" fill="rgb(100%, 92.1875%, 76.5625%)" fill-opacity="1" d="M 1636.46875 1385.175781 L 1617.828125 1385.175781 L 1617.828125 1400.394531 L 1636.46875 1400.394531 L 1636.46875 1385.175781 "/>
<path fill-rule="evenodd" fill="rgb(100%, 92.1875%, 76.5625%)" fill-opacity="1" d="M 1666.261719 1385.175781 L 1647.621094 1385.175781 L 1647.621094 1400.394531 L 1666.261719 1400.394531 L 1666.261719 1385.175781 "/>
<path fill-rule="evenodd" fill="rgb(100%, 92.1875%, 76.5625%)" fill-opacity="1" d="M 1696.050781 1385.175781 L 1677.398438 1385.175781 L 1677.398438 1400.394531 L 1696.050781 1400.394531 L 1696.050781 1385.175781 "/>
<path fill-rule="evenodd" fill="rgb(100%, 92.1875%, 76.5625%)" fill-opacity="1" d="M 1725.839844 1385.175781 L 1707.191406 1385.175781 L 1707.191406 1400.394531 L 1725.839844 1400.394531 L 1725.839844 1385.175781 "/>
<path fill-rule="evenodd" fill="rgb(100%, 92.1875%, 76.5625%)" fill-opacity="1" d="M 1755.628906 1385.175781 L 1736.980469 1385.175781 L 1736.980469 1400.394531 L 1755.628906 1400.394531 L 1755.628906 1385.175781 "/>
<path fill-rule="evenodd" fill="rgb(100%, 92.1875%, 76.5625%)" fill-opacity="1" d="M 1785.410156 1385.175781 L 1766.769531 1385.175781 L 1766.769531 1400.394531 L 1785.410156 1400.394531 L 1785.410156 1385.175781 "/>
<path fill-rule="evenodd" fill="rgb(100%, 92.1875%, 76.5625%)" fill-opacity="1" d="M 1815.199219 1385.175781 L 1796.558594 1385.175781 L 1796.558594 1400.394531 L 1815.199219 1400.394531 L 1815.199219 1385.175781 "/>
<path fill-rule="evenodd" fill="rgb(22.996521%, 22.093201%, 21.508789%)" fill-opacity="1" d="M 221.691406 1489.007812 L 216.316406 1489.007812 L 216.316406 1508.996094 L 221.691406 1508.996094 L 221.691406 1582.402344 L 309.644531 1582.402344 L 309.644531 1508.996094 L 315.164062 1508.996094 L 315.164062 1489.007812 L 309.644531 1489.007812 L 309.644531 1470.980469 C 313.523438 1459.949219 276.265625 1423.5625 263.742188 1421.253906 C 263.40625 1421.191406 247.355469 1430.519531 235.710938 1443.527344 C 224.46875 1456.089844 221.691406 1470.980469 221.691406 1470.980469 L 221.691406 1489.007812 "/>
<path fill-rule="evenodd" fill="rgb(22.996521%, 22.093201%, 21.508789%)" fill-opacity="1" d="M 1372.851562 1489.007812 L 1367.480469 1489.007812 L 1367.480469 1508.996094 L 1372.851562 1508.996094 L 1372.851562 1582.402344 L 1460.800781 1582.402344 L 1460.800781 1508.996094 L 1466.320312 1508.996094 L 1466.320312 1489.007812 L 1460.800781 1489.007812 L 1460.800781 1470.980469 C 1464.679688 1459.949219 1427.429688 1423.5625 1414.898438 1421.253906 C 1414.570312 1421.191406 1398.519531 1430.519531 1386.871094 1443.527344 C 1375.628906 1456.089844 1372.851562 1470.980469 1372.851562 1470.980469 L 1372.851562 1489.007812 "/>
<path fill-rule="evenodd" fill="rgb(22.996521%, 22.093201%, 21.508789%)" fill-opacity="1" d="M 333.769531 1489.007812 L 328.394531 1489.007812 L 328.394531 1508.996094 L 333.769531 1508.996094 L 333.769531 1582.402344 L 421.722656 1582.402344 L 421.722656 1508.996094 L 427.242188 1508.996094 L 427.242188 1489.007812 L 421.722656 1489.007812 L 421.722656 1470.980469 C 425.601562 1459.949219 388.34375 1423.5625 375.820312 1421.253906 C 375.484375 1421.191406 359.433594 1430.519531 347.789062 1443.527344 C 336.546875 1456.089844 333.769531 1470.980469 333.769531 1470.980469 L 333.769531 1489.007812 "/>
<path fill-rule="evenodd" fill="rgb(22.996521%, 22.093201%, 21.508789%)" fill-opacity="1" d="M 1484.929688 1489.007812 L 1479.558594 1489.007812 L 1479.558594 1508.996094 L 1484.929688 1508.996094 L 1484.929688 1582.402344 L 1572.878906 1582.402344 L 1572.878906 1508.996094 L 1578.398438 1508.996094 L 1578.398438 1489.007812 L 1572.878906 1489.007812 L 1572.878906 1470.980469 C 1576.761719 1459.949219 1539.511719 1423.5625 1526.980469 1421.253906 C 1526.640625 1421.191406 1510.589844 1430.519531 1498.949219 1443.527344 C 1487.710938 1456.089844 1484.929688 1470.980469 1484.929688 1470.980469 L 1484.929688 1489.007812 "/>
<path fill-rule="evenodd" fill="rgb(22.996521%, 22.093201%, 21.508789%)" fill-opacity="1" d="M 445.847656 1489.007812 L 440.472656 1489.007812 L 440.472656 1508.996094 L 445.847656 1508.996094 L 445.847656 1582.402344 L 533.800781 1582.402344 L 533.800781 1508.996094 L 539.320312 1508.996094 L 539.320312 1489.007812 L 533.800781 1489.007812 L 533.800781 1470.980469 C 537.679688 1459.949219 500.425781 1423.5625 487.898438 1421.253906 C 487.5625 1421.191406 471.511719 1430.519531 459.867188 1443.527344 C 448.625 1456.089844 445.847656 1470.980469 445.847656 1470.980469 L 445.847656 1489.007812 "/>
<path fill-rule="evenodd" fill="rgb(22.996521%, 22.093201%, 21.508789%)" fill-opacity="1" d="M 1597.011719 1489.007812 L 1591.628906 1489.007812 L 1591.628906 1508.996094 L 1597.011719 1508.996094 L 1597.011719 1582.402344 L 1684.960938 1582.402344 L 1684.960938 1508.996094 L 1690.480469 1508.996094 L 1690.480469 1489.007812 L 1684.960938 1489.007812 L 1684.960938 1470.980469 C 1688.839844 1459.949219 1651.578125 1423.5625 1639.058594 1421.253906 C 1638.71875 1421.191406 1622.671875 1430.519531 1611.03125 1443.527344 C 1599.789062 1456.089844 1597.011719 1470.980469 1597.011719 1470.980469 L 1597.011719 1489.007812 "/>
<path fill-rule="evenodd" fill="rgb(22.996521%, 22.093201%, 21.508789%)" fill-opacity="1" d="M 557.925781 1489.007812 L 552.554688 1489.007812 L 552.554688 1508.996094 L 557.925781 1508.996094 L 557.925781 1582.402344 L 645.878906 1582.402344 L 645.878906 1508.996094 L 651.398438 1508.996094 L 651.398438 1489.007812 L 645.878906 1489.007812 L 645.878906 1470.980469 C 649.757812 1459.949219 612.503906 1423.5625 599.980469 1421.253906 C 599.640625 1421.191406 583.589844 1430.519531 571.945312 1443.527344 C 560.703125 1456.089844 557.925781 1470.980469 557.925781 1470.980469 L 557.925781 1489.007812 "/>
<path fill-rule="evenodd" fill="rgb(22.996521%, 22.093201%, 21.508789%)" fill-opacity="1" d="M 1709.089844 1489.007812 L 1703.710938 1489.007812 L 1703.710938 1508.996094 L 1709.089844 1508.996094 L 1709.089844 1582.402344 L 1797.039062 1582.402344 L 1797.039062 1508.996094 L 1802.558594 1508.996094 L 1802.558594 1489.007812 L 1797.039062 1489.007812 L 1797.039062 1470.980469 C 1800.921875 1459.949219 1763.660156 1423.5625 1751.140625 1421.253906 C 1750.800781 1421.191406 1734.75 1430.519531 1723.109375 1443.527344 C 1711.859375 1456.089844 1709.089844 1470.980469 1709.089844 1470.980469 L 1709.089844 1489.007812 "/>
<path fill-rule="evenodd" fill="rgb(82.226562%, 69.921875%, 46.18988%)" fill-opacity="1" d="M 210.15625 1418.339844 C 215.101562 1418.339844 219.117188 1422.777344 219.117188 1428.242188 C 219.117188 1433.707031 215.101562 1438.144531 210.15625 1438.144531 C 205.210938 1438.144531 201.195312 1433.707031 201.195312 1428.242188 C 201.195312 1422.777344 205.210938 1418.339844 210.15625 1418.339844 "/>
<path fill-rule="evenodd" fill="rgb(82.226562%, 69.921875%, 46.18988%)" fill-opacity="1" d="M 1358.039062 1421.253906 C 1362.988281 1421.253906 1367.011719 1425.691406 1367.011719 1431.15625 C 1367.011719 1436.621094 1362.988281 1441.058594 1358.039062 1441.058594 C 1353.101562 1441.058594 1349.078125 1436.621094 1349.078125 1431.15625 C 1349.078125 1425.691406 1353.101562 1421.253906 1358.039062 1421.253906 "/>
<path fill-rule="evenodd" fill="rgb(82.226562%, 69.921875%, 46.18988%)" fill-opacity="1" d="M 324.125 1418.339844 C 329.070312 1418.339844 333.085938 1422.777344 333.085938 1428.242188 C 333.085938 1433.707031 329.070312 1438.144531 324.125 1438.144531 C 319.179688 1438.144531 315.164062 1433.707031 315.164062 1428.242188 C 315.164062 1422.777344 319.179688 1418.339844 324.125 1418.339844 "/>
<path fill-rule="evenodd" fill="rgb(82.226562%, 69.921875%, 46.18988%)" fill-opacity="1" d="M 1472.011719 1421.253906 C 1476.960938 1421.253906 1480.980469 1425.691406 1480.980469 1431.15625 C 1480.980469 1436.621094 1476.960938 1441.058594 1472.011719 1441.058594 C 1467.070312 1441.058594 1463.050781 1436.621094 1463.050781 1431.15625 C 1463.050781 1425.691406 1467.070312 1421.253906 1472.011719 1421.253906 "/>
<path fill-rule="evenodd" fill="rgb(82.226562%, 69.921875%, 46.18988%)" fill-opacity="1" d="M 436.523438 1418.339844 C 441.46875 1418.339844 445.484375 1422.777344 445.484375 1428.242188 C 445.484375 1433.707031 441.46875 1438.144531 436.523438 1438.144531 C 431.574219 1438.144531 427.5625 1433.707031 427.5625 1428.242188 C 427.5625 1422.777344 431.574219 1418.339844 436.523438 1418.339844 "/>
<path fill-rule="evenodd" fill="rgb(82.226562%, 69.921875%, 46.18988%)" fill-opacity="1" d="M 1584.410156 1421.253906 C 1589.359375 1421.253906 1593.371094 1425.691406 1593.371094 1431.15625 C 1593.371094 1436.621094 1589.359375 1441.058594 1584.410156 1441.058594 C 1579.460938 1441.058594 1575.449219 1436.621094 1575.449219 1431.15625 C 1575.449219 1425.691406 1579.460938 1421.253906 1584.410156 1421.253906 "/>
<path fill-rule="evenodd" fill="rgb(82.226562%, 69.921875%, 46.18988%)" fill-opacity="1" d="M 548.917969 1418.339844 C 553.863281 1418.339844 557.882812 1422.777344 557.882812 1428.242188 C 557.882812 1433.707031 553.863281 1438.144531 548.917969 1438.144531 C 543.972656 1438.144531 539.957031 1433.707031 539.957031 1428.242188 C 539.957031 1422.777344 543.972656 1418.339844 548.917969 1418.339844 "/>
<path fill-rule="evenodd" fill="rgb(82.226562%, 69.921875%, 46.18988%)" fill-opacity="1" d="M 1696.808594 1421.253906 C 1701.75 1421.253906 1705.769531 1425.691406 1705.769531 1431.15625 C 1705.769531 1436.621094 1701.75 1441.058594 1696.808594 1441.058594 C 1691.859375 1441.058594 1687.851562 1436.621094 1687.851562 1431.15625 C 1687.851562 1425.691406 1691.859375 1421.253906 1696.808594 1421.253906 "/>
<path fill-rule="evenodd" fill="rgb(82.226562%, 69.921875%, 46.18988%)" fill-opacity="1" d="M 658.660156 1418.339844 C 663.605469 1418.339844 667.621094 1422.777344 667.621094 1428.242188 C 667.621094 1433.707031 663.605469 1438.144531 658.660156 1438.144531 C 653.714844 1438.144531 649.699219 1433.707031 649.699219 1428.242188 C 649.699219 1422.777344 653.714844 1418.339844 658.660156 1418.339844 "/>
<path fill-rule="evenodd" fill="rgb(82.226562%, 69.921875%, 46.18988%)" fill-opacity="1" d="M 1806.550781 1421.253906 C 1811.5 1421.253906 1815.511719 1425.691406 1815.511719 1431.15625 C 1815.511719 1436.621094 1811.5 1441.058594 1806.550781 1441.058594 C 1801.601562 1441.058594 1797.589844 1436.621094 1797.589844 1431.15625 C 1797.589844 1425.691406 1801.601562 1421.253906 1806.550781 1421.253906 "/>
<path fill-rule="evenodd" fill="rgb(96.484375%, 75.389099%, 51.171875%)" fill-opacity="1" d="M 936.421875 574.53125 L 758.703125 574.53125 L 758.703125 1098.691406 L 936.421875 1098.691406 L 936.421875 574.53125 "/>
<path fill-rule="evenodd" fill="rgb(54.881287%, 59.179688%, 58.006287%)" fill-opacity="1" d="M 792.878906 615.210938 L 775.738281 615.210938 L 775.738281 987.921875 L 792.878906 987.921875 L 792.878906 615.210938 "/>
<path fill-rule="evenodd" fill="rgb(54.881287%, 59.179688%, 58.006287%)" fill-opacity="1" d="M 824.785156 615.210938 L 807.644531 615.210938 L 807.644531 987.921875 L 824.785156 987.921875 L 824.785156 615.210938 "/>
<path fill-rule="evenodd" fill="rgb(54.881287%, 59.179688%, 58.006287%)" fill-opacity="1" d="M 856.6875 615.210938 L 839.546875 615.210938 L 839.546875 987.921875 L 856.6875 987.921875 L 856.6875 615.210938 "/>
<path fill-rule="evenodd" fill="rgb(54.881287%, 59.179688%, 58.006287%)" fill-opacity="1" d="M 888.59375 615.210938 L 871.453125 615.210938 L 871.453125 987.921875 L 888.59375 987.921875 L 888.59375 615.210938 "/>
<path fill-rule="evenodd" fill="rgb(54.881287%, 59.179688%, 58.006287%)" fill-opacity="1" d="M 920.496094 615.210938 L 903.355469 615.210938 L 903.355469 987.921875 L 920.496094 987.921875 L 920.496094 615.210938 "/>
<path fill-rule="evenodd" fill="rgb(96.484375%, 75.389099%, 51.171875%)" fill-opacity="1" d="M 856.957031 297.160156 L 832.828125 297.160156 L 832.828125 397.828125 L 856.957031 397.828125 L 856.957031 297.160156 "/>
<path fill-rule="evenodd" fill="rgb(96.484375%, 75.389099%, 51.171875%)" fill-opacity="1" d="M 877.386719 251.910156 C 883.261719 260.269531 884.253906 271.148438 878.929688 281.160156 C 870.382812 297.230469 848.777344 304.988281 830.710938 298.488281 C 812.644531 291.988281 804.917969 273.671875 813.464844 257.609375 C 814.542969 255.578125 815.832031 253.679688 817.296875 251.929688 C 814.425781 263.578125 821.257812 275.519531 834.472656 280.28125 C 849.789062 285.789062 867.917969 279.558594 874.925781 266.390625 C 877.453125 261.640625 878.191406 256.628906 877.386719 251.910156 "/>
<path fill-rule="evenodd" fill="rgb(54.881287%, 59.179688%, 58.006287%)" fill-opacity="1" d="M 848.945312 362.261719 C 876.039062 363.820312 896.765625 387.789062 895.199219 415.761719 C 893.632812 443.71875 870.363281 465.160156 843.269531 463.609375 C 816.175781 462.050781 795.449219 438.078125 797.015625 410.109375 C 798.582031 382.148438 821.851562 360.710938 848.945312 362.261719 "/>
<path fill-rule="evenodd" fill="rgb(96.484375%, 75.389099%, 51.171875%)" fill-opacity="1" d="M 892.246094 411.96875 C 883.386719 408.019531 808.5625 407.660156 799.667969 411.609375 C 780.25 420.230469 775.738281 463.691406 775.738281 463.691406 L 916.476562 463.691406 C 916.476562 463.691406 911.714844 420.648438 892.246094 411.96875 "/>
<path fill-rule="evenodd" fill="rgb(96.484375%, 75.389099%, 51.171875%)" fill-opacity="1" d="M 916.476562 463.691406 L 775.738281 463.691406 L 775.738281 596.121094 L 916.476562 596.121094 L 916.476562 463.691406 "/>
<path fill-rule="evenodd" fill="rgb(100%, 91.209412%, 76.5625%)" fill-opacity="1" d="M 846.007812 478.160156 C 873.113281 478.160156 895.125 501.351562 895.125 529.898438 C 895.125 558.460938 873.113281 581.640625 846.007812 581.640625 C 818.898438 581.640625 796.890625 558.460938 796.890625 529.898438 C 796.890625 501.351562 818.898438 478.160156 846.007812 478.160156 "/>
<path fill-rule="evenodd" fill="rgb(54.881287%, 59.179688%, 58.006287%)" fill-opacity="1" d="M 845.425781 524.308594 C 845.046875 528.199219 844.515625 531.800781 844.054688 535.679688 C 843.859375 537.300781 843.675781 538.871094 843.539062 540.5 C 843.355469 542.648438 843.15625 544.769531 843.121094 546.929688 C 843.097656 548.351562 843.121094 549.789062 843.265625 551.199219 C 843.519531 553.648438 843.976562 555.960938 844.515625 558.339844 C 845.375 562.109375 846.480469 565.328125 847.566406 569.019531 C 848.132812 566.648438 848.710938 564.621094 849.234375 562.238281 C 849.738281 559.949219 850.179688 557.828125 850.53125 555.5 C 850.761719 553.988281 850.953125 552.519531 851.023438 551 C 851.09375 549.5 851.070312 547.988281 850.953125 546.5 C 850.722656 543.449219 850.242188 540.5 849.671875 537.511719 C 848.796875 532.910156 847.597656 528.691406 846.347656 524.210938 C 846.324219 523.929688 846.097656 523.71875 845.839844 523.75 C 845.585938 523.769531 845.398438 524.03125 845.425781 524.308594 "/>
<path fill-rule="evenodd" fill="rgb(54.881287%, 59.179688%, 58.006287%)" fill-opacity="1" d="M 845.660156 524.371094 C 846.84375 527.148438 847.804688 529.839844 848.921875 532.660156 C 849.390625 533.851562 849.84375 534.980469 850.355469 536.148438 C 851.03125 537.671875 851.683594 539.179688 852.472656 540.640625 C 852.996094 541.601562 853.554688 542.539062 854.203125 543.398438 C 855.320312 544.890625 856.539062 546.179688 857.851562 547.46875 C 859.933594 549.511719 861.988281 551.050781 864.210938 552.910156 C 863.746094 551.03125 863.417969 549.378906 862.914062 547.511719 C 862.425781 545.710938 861.960938 544.070312 861.34375 542.328125 C 860.945312 541.199219 860.535156 540.121094 860.011719 539.070312 C 859.5 538.039062 858.910156 537.050781 858.257812 536.121094 C 856.925781 534.21875 855.445312 532.519531 853.882812 530.839844 C 851.472656 528.261719 848.96875 526.101562 846.320312 523.800781 C 846.195312 523.628906 845.941406 523.609375 845.761719 523.769531 C 845.578125 523.921875 845.53125 524.199219 845.660156 524.371094 "/>
<path fill-rule="evenodd" fill="rgb(22.996521%, 22.093201%, 21.508789%)" fill-opacity="1" d="M 1007.351562 937.328125 L 1352.808594 984.761719 L 1350.109375 1590.628906 L 1007.351562 1638.410156 L 1007.351562 937.328125 "/>
<g clip-path="url(#clip-0)">
<g clip-path="url(#clip-1)">
<path fill-rule="evenodd" fill="rgb(96.484375%, 75.389099%, 51.171875%)" fill-opacity="1" d="M 1007.351562 983.929688 L 1452.519531 1033.050781 L 1457.640625 1084.109375 L 1007.351562 1046.324219 L 1007.351562 983.929688 "/>
</g>
</g>
<g clip-path="url(#clip-2)">
<g clip-path="url(#clip-3)">
<path fill-rule="evenodd" fill="rgb(96.484375%, 75.389099%, 51.171875%)" fill-opacity="1" d="M 1319.128906 1096 L 1452.519531 1105.585938 L 1457.640625 1140.074219 L 1319.128906 1133.546875 Z M 1214.570312 1128.617188 L 1292.230469 1132.277344 L 1292.230469 1094.066406 L 1214.570312 1088.488281 Z M 1095.359375 1123.003906 L 1191.070312 1127.511719 L 1191.070312 1086.800781 L 1095.359375 1079.925781 Z M 1069.710938 1078.164062 L 1070.429688 1122.054688 L 1007.351562 1118.855469 L 1007.351562 1073.601562 L 1069.710938 1078.164062 "/>
</g>
</g>
<g clip-path="url(#clip-4)">
<g clip-path="url(#clip-5)">
<path fill-rule="evenodd" fill="rgb(96.484375%, 75.389099%, 51.171875%)" fill-opacity="1" d="M 1295.140625 1114.800781 L 1304.808594 1106.019531 L 1313.921875 1116.320312 L 1304.25 1125.101562 L 1295.140625 1114.800781 "/>
</g>
</g>
<g clip-path="url(#clip-6)">
<g clip-path="url(#clip-7)">
<path fill-rule="evenodd" fill="rgb(96.484375%, 75.389099%, 51.171875%)" fill-opacity="1" d="M 1192.640625 1109.128906 L 1202.308594 1100.347656 L 1211.421875 1110.648438 L 1201.75 1119.429688 L 1192.640625 1109.128906 "/>
</g>
</g>
<g clip-path="url(#clip-8)">
<g clip-path="url(#clip-9)">
<path fill-rule="evenodd" fill="rgb(96.484375%, 75.389099%, 51.171875%)" fill-opacity="1" d="M 1072.988281 1099.589844 L 1082.660156 1090.804688 L 1091.761719 1101.105469 L 1082.089844 1109.890625 L 1072.988281 1099.589844 "/>
</g>
</g>
<path fill-rule="evenodd" fill="rgb(22.996521%, 22.093201%, 21.508789%)" fill-opacity="1" d="M 1007.351562 937.328125 L 661.894531 984.761719 L 664.597656 1590.628906 L 1007.351562 1638.410156 L 1007.351562 937.328125 "/>
<g clip-path="url(#clip-10)">
<g clip-path="url(#clip-11)">
<path fill-rule="evenodd" fill="rgb(96.484375%, 75.389099%, 51.171875%)" fill-opacity="1" d="M 1007.351562 983.929688 L 562.1875 1033.050781 L 557.0625 1084.109375 L 1007.351562 1046.324219 L 1007.351562 983.929688 "/>
</g>
</g>
<g clip-path="url(#clip-12)">
<g clip-path="url(#clip-13)">
<path fill-rule="evenodd" fill="rgb(96.484375%, 75.389099%, 51.171875%)" fill-opacity="1" d="M 667.527344 1097.453125 L 562.1875 1105.585938 L 557.0625 1140.074219 L 668.394531 1135.972656 Z M 919.339844 1123.003906 L 823.632812 1127.511719 L 823.632812 1086.800781 L 919.339844 1079.925781 Z M 944.992188 1078.164062 L 944.269531 1122.054688 L 1007.351562 1118.855469 L 1007.351562 1073.601562 L 944.992188 1078.164062 "/>
</g>
</g>
<g clip-path="url(#clip-14)">
<g clip-path="url(#clip-15)">
<path fill-rule="evenodd" fill="rgb(85.351562%, 63.671875%, 41.308594%)" fill-opacity="1" d="M 686.59375 1354.527344 L 803.445312 1351.878906 L 805.890625 1586.539062 L 683.460938 1571.929688 L 686.59375 1354.527344 "/>
</g>
</g>
<g clip-path="url(#clip-16)">
<g clip-path="url(#clip-17)">
<path fill-rule="evenodd" fill="rgb(22.996521%, 22.093201%, 21.508789%)" fill-opacity="1" d="M 695.765625 1354.320312 L 793.289062 1352.105469 L 796.566406 1574.554688 L 694.183594 1562.441406 L 695.765625 1354.320312 "/>
</g>
</g>
<g clip-path="url(#clip-18)">
<g clip-path="url(#clip-19)">
<path fill-rule="evenodd" fill="rgb(96.484375%, 75.389099%, 51.171875%)" fill-opacity="1" d="M 674.75 1096.226562 L 807.183594 1090.804688 L 814.601562 1499.542969 L 753.390625 1492.914062 L 744.042969 1405.097656 L 730.957031 1492.890625 L 678.546875 1490.429688 L 674.75 1096.226562 "/>
</g>
</g>
<g clip-path="url(#clip-20)">
<g clip-path="url(#clip-21)">
<path fill-rule="evenodd" fill="rgb(96.484375%, 75.389099%, 51.171875%)" fill-opacity="1" d="M 757.421875 1112.195312 L 747.75 1103.410156 L 738.648438 1113.710938 L 748.316406 1122.496094 L 757.421875 1112.195312 "/>
</g>
</g>
<g clip-path="url(#clip-22)">
<g clip-path="url(#clip-23)">
<path fill-rule="evenodd" fill="rgb(96.484375%, 75.389099%, 51.171875%)" fill-opacity="1" d="M 822.058594 1109.128906 L 812.390625 1100.347656 L 803.285156 1110.648438 L 812.957031 1119.429688 L 822.058594 1109.128906 "/>
</g>
</g>
<g clip-path="url(#clip-24)">
<g clip-path="url(#clip-25)">
<path fill-rule="evenodd" fill="rgb(96.484375%, 75.389099%, 51.171875%)" fill-opacity="1" d="M 941.714844 1099.589844 L 932.046875 1090.804688 L 922.941406 1101.105469 L 932.613281 1109.890625 L 941.714844 1099.589844 "/>
</g>
</g>
<path fill-rule="nonzero" fill="rgb(48.509216%, 62.109375%, 58.59375%)" fill-opacity="1" d="M 842.65625 418.570312 C 842.632812 418.558594 842.609375 418.570312 842.59375 418.578125 C 842.550781 418.621094 842.449219 419 842.367188 419.429688 L 842.214844 420.21875 L 843.078125 421.359375 C 844.285156 422.949219 844.878906 424.078125 845.1875 425.378906 C 845.507812 426.710938 845.523438 427.421875 845.265625 428.480469 C 845.160156 428.910156 845.105469 429.300781 845.136719 429.339844 C 845.171875 429.390625 845.257812 429.429688 845.328125 429.429688 C 845.714844 429.429688 846.171875 427.769531 846.261719 426.058594 C 846.355469 424.390625 846.136719 423.441406 845.328125 421.949219 C 844.527344 420.480469 843.046875 418.621094 842.65625 418.570312 Z M 858.675781 426.589844 C 858.589844 426.589844 858.484375 426.621094 858.328125 426.679688 C 858.121094 426.761719 856.882812 427.140625 855.578125 427.519531 C 851.71875 428.640625 847.875 429.851562 845.117188 430.808594 C 839.597656 432.71875 834.429688 434.738281 832.886719 435.601562 C 832.097656 436.03125 831.90625 436.210938 831.597656 436.789062 C 831.398438 437.171875 831.234375 437.570312 831.234375 437.699219 C 831.234375 438 831.269531 437.988281 832.179688 437.460938 C 833.253906 436.839844 835.535156 435.808594 837.652344 435 C 838.609375 434.621094 839.519531 434.269531 839.671875 434.210938 C 844.355469 432.390625 848.835938 430.878906 854.8125 429.128906 C 857.753906 428.269531 857.886719 428.210938 858.554688 427.589844 C 859.199219 426.988281 859.234375 426.898438 858.925781 426.679688 C 858.835938 426.621094 858.765625 426.589844 858.675781 426.589844 Z M 858.253906 431.550781 C 858.015625 431.609375 857.796875 431.898438 857.363281 432.488281 C 856.550781 433.609375 856.453125 433.808594 856.378906 434.609375 C 856.316406 435.25 856.335938 435.308594 856.753906 435.640625 C 856.992188 435.839844 857.328125 436.019531 857.5 436.050781 C 858.269531 436.171875 858.65625 436.109375 859.304688 435.761719 C 860.238281 435.238281 860.863281 434.460938 860.738281 433.941406 C 860.574219 433.300781 860.117188 432.71875 859.242188 432.058594 C 858.746094 431.691406 858.492188 431.5 858.253906 431.550781 Z M 858.0625 432.671875 L 858.914062 433.460938 C 859.382812 433.898438 859.785156 434.289062 859.804688 434.351562 C 859.832031 434.398438 859.707031 434.511719 859.53125 434.589844 C 858.527344 435.050781 857.058594 434.859375 857.042969 434.269531 C 857.042969 434.210938 857.273438 433.820312 857.554688 433.410156 Z M 849.414062 435.441406 C 849.375 435.441406 849.339844 435.441406 849.304688 435.449219 C 848.96875 435.558594 849.050781 436.019531 849.507812 436.601562 C 849.96875 437.199219 850.035156 437.578125 849.730469 437.789062 C 849.378906 438.039062 849.023438 437.738281 848.625 436.871094 C 848.214844 435.980469 847.703125 435.460938 847.355469 435.570312 C 847.027344 435.679688 847.09375 436.261719 847.492188 436.878906 C 847.90625 437.519531 847.816406 437.839844 847.183594 437.980469 C 846.652344 438.089844 846.441406 437.800781 846.441406 436.949219 C 846.441406 436.398438 846.375 436.199219 846.117188 435.941406 C 845.699219 435.519531 845.398438 435.640625 845.527344 436.171875 C 845.582031 436.378906 845.667969 437 845.726562 437.550781 C 845.816406 438.449219 845.871094 438.589844 846.226562 438.851562 C 846.707031 439.199219 847.304688 439.148438 847.816406 438.710938 L 848.148438 438.429688 L 848.648438 438.71875 C 849.425781 439.171875 850.09375 438.929688 850.640625 438.019531 C 851.007812 437.398438 850.972656 436.980469 850.511719 436.359375 C 850.066406 435.769531 849.683594 435.449219 849.414062 435.441406 Z M 835.972656 438.179688 C 835.890625 438.171875 835.851562 438.230469 835.777344 438.339844 C 835.695312 438.460938 835.429688 438.738281 835.1875 438.96875 C 834.796875 439.328125 834.585938 439.851562 834.585938 440.460938 C 834.585938 440.589844 834.761719 440.699219 835.140625 440.789062 C 835.445312 440.859375 835.695312 440.980469 835.695312 441.058594 C 835.695312 441.289062 834.015625 442.558594 832.753906 443.28125 C 832.085938 443.660156 830.816406 444.261719 829.925781 444.621094 C 829.007812 444.988281 828.300781 445.339844 828.300781 445.441406 C 828.300781 445.980469 832.214844 444.53125 834.230469 443.238281 C 834.691406 442.941406 835.433594 442.390625 835.878906 442.019531 C 836.570312 441.429688 836.722656 441.359375 836.925781 441.480469 C 837.054688 441.558594 837.371094 441.71875 837.625 441.828125 C 838.039062 442.019531 838.125 442.019531 838.464844 441.859375 C 838.960938 441.621094 839.003906 441.160156 838.609375 440.460938 C 838.246094 439.808594 837.132812 438.75 836.417969 438.371094 C 836.179688 438.25 836.058594 438.179688 835.972656 438.179688 Z M 858.648438 439.480469 C 858.359375 439.480469 858.335938 439.539062 858.09375 441.101562 C 857.96875 441.878906 857.765625 442.929688 857.644531 443.421875 C 857.519531 443.921875 857.417969 444.769531 857.417969 445.328125 C 857.417969 446.640625 857.96875 448.089844 859.324219 450.351562 C 862.082031 454.949219 862.625 455.921875 862.625 456.261719 C 862.625 456.539062 862.457031 456.75 861.839844 457.25 C 860.898438 458 860.140625 458.238281 858.789062 458.238281 C 856.511719 458.238281 854.777344 457.210938 853.558594 455.140625 C 852.769531 453.789062 852.28125 452.070312 851.878906 449.21875 C 851.265625 444.820312 850.808594 443.191406 849.898438 442.070312 C 849.75 441.890625 849.578125 441.769531 849.519531 441.800781 C 849.367188 441.878906 848.738281 443.449219 848.527344 444.28125 C 848.394531 444.800781 848.386719 445.171875 848.507812 445.839844 C 848.59375 446.320312 848.695312 446.921875 848.730469 447.191406 C 848.769531 447.449219 848.929688 448.5 849.082031 449.519531 C 849.847656 454.601562 849.929688 455.699219 849.582031 456.410156 C 849.269531 457.050781 847.855469 458.160156 846.765625 458.621094 C 845.167969 459.179688 843.441406 459.210938 842.144531 458.621094 C 841.109375 458.128906 840.378906 457.480469 840.167969 456.851562 C 839.664062 455.359375 839.6875 453.359375 840.234375 450.351562 C 840.34375 449.730469 840.476562 448.058594 840.527344 446.648438 C 840.613281 444.191406 840.605469 444.070312 840.339844 443.871094 C 840.074219 443.660156 840.046875 443.671875 839.371094 444.339844 C 837.195312 446.511719 836.300781 448.480469 835.355469 453.21875 C 834.875 455.621094 834.40625 457.070312 833.953125 457.578125 C 833.390625 458.210938 832.582031 458.601562 831.820312 458.601562 C 830.003906 458.609375 828.074219 456.578125 827.449219 454 C 827.304688 453.410156 827.117188 451.929688 827.027344 450.710938 C 826.945312 449.488281 826.851562 448.480469 826.824219 448.449219 C 826.796875 448.429688 826.667969 448.480469 826.542969 448.570312 C 826.335938 448.71875 826.320312 448.941406 826.398438 450.53125 C 826.566406 453.910156 827.058594 456.699219 827.738281 458.128906 C 828.660156 460.070312 830.730469 461.808594 832.140625 461.820312 C 832.511719 461.828125 833.316406 461.578125 833.769531 461.328125 C 833.96875 461.21875 834.300781 460.871094 834.507812 460.550781 C 834.890625 459.960938 835 459.621094 835.347656 457.878906 C 835.457031 457.328125 835.613281 456.628906 835.6875 456.328125 C 835.757812 456.03125 835.953125 455.171875 836.117188 454.421875 C 836.425781 452.96875 837.023438 450.941406 837.234375 450.609375 C 837.300781 450.5 837.488281 450.148438 837.640625 449.828125 C 837.976562 449.148438 839.152344 447.601562 839.335938 447.601562 C 839.511719 447.601562 839.507812 447.628906 839.132812 449.300781 C 837.9375 454.558594 838.003906 457.058594 839.417969 459.789062 C 839.824219 460.578125 840.265625 461.011719 841.210938 461.53125 C 842.890625 462.460938 844.523438 462.539062 846.328125 461.800781 C 848.472656 460.910156 850.992188 458.128906 851.273438 456.328125 C 851.441406 455.28125 851.472656 455.269531 851.8125 456.191406 C 852.1875 457.199219 852.988281 458.570312 853.613281 459.261719 C 854.742188 460.511719 856.296875 461.371094 857.84375 461.589844 C 859.003906 461.75 859.464844 461.691406 860.550781 461.21875 C 862.304688 460.46875 863.445312 458.660156 864.105469 455.609375 C 864.226562 455.050781 864.289062 454.371094 864.246094 454.089844 C 864.128906 453.339844 863.433594 451.890625 862.511719 450.46875 C 860.566406 447.46875 859.71875 445.980469 859.132812 444.488281 C 858.664062 443.300781 858.761719 443.28125 860.0625 444.378906 C 863.898438 447.621094 865.523438 449.800781 867.085938 453.820312 C 867.882812 455.878906 868.035156 457.320312 867.585938 458.480469 C 866.078125 462.371094 861.570312 465.949219 855.722656 467.898438 C 853.640625 468.601562 851.546875 469.390625 851.429688 469.53125 C 851.375 469.601562 851.328125 469.699219 851.328125 469.75 C 851.316406 469.878906 852.703125 469.859375 853.285156 469.71875 C 853.753906 469.609375 855.199219 469.398438 857.585938 469.109375 C 859.953125 468.820312 861.457031 468.171875 863.402344 466.589844 C 865.960938 464.511719 867.058594 462.800781 868.269531 459.019531 C 868.394531 458.628906 868.554688 458.140625 868.621094 457.949219 C 869.363281 455.769531 869.363281 453.28125 868.636719 451.371094 C 867.453125 448.289062 866.078125 446.101562 863.992188 443.949219 C 862.757812 442.691406 858.925781 439.46875 858.648438 439.46875 Z M 835.925781 439.539062 C 836.0625 439.550781 836.199219 439.628906 836.226562 439.75 C 836.253906 439.859375 836.222656 439.949219 836.15625 439.941406 C 835.75 439.890625 835.546875 439.789062 835.59375 439.671875 C 835.636719 439.570312 835.78125 439.519531 835.925781 439.539062 Z M 844.222656 447.480469 C 844.054688 447.480469 843.539062 448.539062 843.242188 449.480469 C 842.683594 451.269531 842.738281 452.691406 843.394531 453.398438 C 843.8125 453.859375 844.292969 453.789062 844.980469 453.179688 C 845.796875 452.449219 846.273438 451.121094 845.902344 450.621094 C 845.757812 450.421875 845.546875 450.621094 845.414062 451.070312 C 845.25 451.648438 844.789062 452.148438 844.421875 452.148438 C 843.613281 452.148438 843.476562 451.070312 844.054688 449.28125 C 844.453125 448.050781 844.507812 447.480469 844.222656 447.480469 Z M 831.558594 447.890625 C 831.476562 447.898438 831.398438 448.03125 831.238281 448.339844 C 830.886719 449.019531 830.535156 450.429688 830.535156 451.160156 C 830.535156 451.480469 830.660156 451.929688 830.828125 452.230469 C 831.0625 452.648438 831.1875 452.738281 831.488281 452.738281 C 832.035156 452.738281 832.628906 451.96875 832.71875 451.160156 C 832.816406 450.199219 832.347656 449.859375 832.152344 450.761719 C 832.042969 451.269531 831.695312 451.550781 831.492188 451.300781 C 831.304688 451.058594 831.453125 449.460938 831.734375 448.761719 C 831.941406 448.230469 831.945312 448.171875 831.742188 447.988281 C 831.664062 447.921875 831.609375 447.890625 831.558594 447.890625 Z M 831.085938 462.671875 C 830.894531 462.671875 830.140625 463.839844 829.902344 464.519531 C 829.261719 466.339844 829.363281 467.101562 830.339844 467.789062 C 830.636719 468 830.972656 468.160156 831.085938 468.140625 C 831.664062 468.039062 832.972656 465.980469 832.878906 465.320312 C 832.820312 464.921875 832.519531 464.851562 832.363281 465.199219 C 832.179688 465.601562 831.394531 466.488281 831.226562 466.488281 C 831.144531 466.488281 830.917969 466.359375 830.722656 466.179688 C 830.257812 465.789062 830.3125 465.230469 830.9375 464.011719 C 831.359375 463.191406 831.414062 462.671875 831.085938 462.671875 Z M 851.882812 462.789062 C 851.628906 462.789062 851.367188 462.871094 851.113281 463.058594 C 850.828125 463.269531 850.734375 463.46875 850.671875 464.011719 C 850.625 464.390625 850.636719 464.699219 850.691406 464.699219 C 850.746094 464.699219 850.917969 464.570312 851.070312 464.398438 C 851.398438 464.039062 851.75 464.019531 852.078125 464.328125 C 852.308594 464.539062 852.304688 464.578125 852.011719 465.078125 C 851.84375 465.359375 851.496094 465.871094 851.238281 466.210938 C 850.976562 466.539062 850.765625 466.878906 850.765625 466.949219 C 850.765625 467.03125 850.890625 467.089844 851.042969 467.089844 C 851.417969 467.089844 852.472656 465.851562 852.863281 464.96875 C 853.226562 464.128906 853.15625 463.601562 852.628906 463.121094 C 852.394531 462.921875 852.144531 462.808594 851.882812 462.789062 Z M 844.539062 464.21875 C 843.71875 464.21875 843.339844 464.671875 842.960938 466.070312 C 842.785156 466.71875 842.5625 467.441406 842.464844 467.679688 L 842.285156 468.109375 L 842.144531 467.808594 C 841.175781 465.730469 840.175781 464.820312 838.859375 464.820312 C 838.203125 464.820312 838.023438 465.058594 838.023438 465.921875 C 838.023438 466.539062 838.070312 466.679688 838.339844 466.871094 C 838.699219 467.121094 839.074219 467.148438 839.488281 466.960938 C 839.71875 466.851562 839.835938 466.878906 840.117188 467.109375 C 840.476562 467.398438 841.160156 468.558594 841.332031 469.179688 C 841.382812 469.378906 841.496094 469.691406 841.578125 469.871094 C 841.664062 470.050781 841.8125 470.199219 841.914062 470.199219 C 842.246094 470.199219 843.136719 468.25 843.570312 466.578125 C 843.742188 465.921875 843.894531 465.609375 844.109375 465.480469 C 844.523438 465.230469 844.722656 465.25 845.117188 465.589844 C 845.414062 465.839844 845.445312 465.949219 845.371094 466.480469 C 845.300781 466.988281 845.320312 467.089844 845.507812 467.089844 C 845.902344 467.089844 846.160156 466.601562 846.160156 465.851562 C 846.160156 465.171875 846.132812 465.121094 845.597656 464.679688 C 845.160156 464.328125 844.917969 464.21875 844.539062 464.21875 "/>
</svg>
