<?xml version="1.0" encoding="UTF-8"?>
<svg xmlns="http://www.w3.org/2000/svg" xmlns:xlink="http://www.w3.org/1999/xlink" width="4500" height="4500" viewBox="0 0 4500 4500">
<path fill-rule="evenodd" fill="rgb(88.28125%, 68.164062%, 53.318787%)" fill-opacity="1" d="M 1707.921875 1197.269531 C 1707.921875 1024.140625 1458.269531 946.410156 1426.21875 822.839844 C 1387.058594 942.851562 1144.519531 1024.140625 1144.519531 1197.269531 C 1144.519531 1370.390625 1144.519531 3469.539062 1144.519531 3469.539062 L 1707.921875 3469.539062 C 1707.921875 3469.539062 1707.921875 1370.390625 1707.921875 1197.269531 Z M 3278.421875 2327 C 3278.421875 1920.808594 2542.941406 1591.53125 2542.941406 1591.53125 C 2542.941406 1591.53125 1807.46875 1920.808594 1807.46875 2327 C 1807.46875 2779 1807.46875 3272.101562 1807.46875 3272.101562 L 3278.421875 3272.101562 C 3278.421875 3272.101562 3278.421875 2779 3278.421875 2327 "/>
<path fill-rule="evenodd" fill="rgb(87.109375%, 67.576599%, 26.609802%)" fill-opacity="1" d="M 2662.480469 1469.671875 C 2641.269531 1477.441406 2618.359375 1481.679688 2594.460938 1481.679688 C 2485.140625 1481.679688 2396.378906 1392.921875 2396.378906 1283.601562 C 2396.378906 1174.269531 2485.140625 1085.519531 2594.460938 1085.519531 C 2618.359375 1085.519531 2641.269531 1089.761719 2662.480469 1097.53125 C 2586.621094 1125.308594 2532.429688 1198.171875 2532.429688 1283.601562 C 2532.429688 1369.019531 2586.621094 1441.890625 2662.480469 1469.671875 "/>
<path fill-rule="evenodd" fill="rgb(86.71875%, 57.617188%, 42.405701%)" fill-opacity="1" d="M 3571.808594 2561.339844 L 2250 2357.601562 L 928.191406 2561.339844 L 928.191406 3469.539062 L 3571.808594 3469.539062 Z M 1775.308594 1383.628906 C 1775.308594 1358.519531 1765.328125 1334.429688 1747.570312 1316.671875 C 1729.808594 1298.910156 1705.71875 1288.941406 1680.609375 1288.941406 C 1547.179688 1288.941406 1305.261719 1288.941406 1171.828125 1288.941406 C 1146.71875 1288.941406 1122.628906 1298.910156 1104.871094 1316.671875 C 1087.121094 1334.429688 1077.140625 1358.519531 1077.140625 1383.628906 C 1077.140625 1434.660156 1077.140625 1487.28125 1077.140625 1487.28125 L 1775.308594 1487.28125 C 1775.308594 1487.28125 1775.308594 1434.660156 1775.308594 1383.628906 "/>
<path fill-rule="evenodd" fill="rgb(82.03125%, 42.700195%, 21.99707%)" fill-opacity="1" d="M 2250 3458.351562 L 781.863281 3458.351562 L 781.863281 3584.277344 L 2250 3677.160156 L 3718.140625 3584.277344 L 3718.140625 3458.351562 L 3571.808594 3458.351562 L 3571.808594 2561.339844 L 2250 2357.601562 L 2250 3458.351562 "/>
<path fill-rule="evenodd" fill="rgb(55.271912%, 34.692383%, 19.40918%)" fill-opacity="1" d="M 1332.558594 3015.441406 C 1332.558594 2935.289062 1267.589844 2870.308594 1187.429688 2870.308594 C 1107.28125 2870.308594 1042.300781 2935.289062 1042.300781 3015.441406 C 1042.300781 3104.628906 1042.300781 3458.351562 1042.300781 3458.351562 L 1332.558594 3458.351562 C 1332.558594 3458.351562 1332.558594 3104.628906 1332.558594 3015.441406 Z M 1726.121094 2903.578125 C 1726.121094 2823.429688 1661.140625 2758.449219 1580.988281 2758.449219 C 1580.980469 2758.449219 1580.980469 2758.449219 1580.980469 2758.449219 C 1500.828125 2758.449219 1435.851562 2823.429688 1435.851562 2903.578125 C 1435.851562 2992.769531 1435.851562 3458.351562 1435.851562 3458.351562 L 1726.121094 3458.351562 C 1726.121094 3458.351562 1726.121094 2992.769531 1726.121094 2903.578125 Z M 2119.671875 2819.691406 C 2119.671875 2739.53125 2054.691406 2674.558594 1974.539062 2674.558594 C 1894.378906 2674.558594 1829.410156 2739.53125 1829.410156 2819.691406 C 1829.410156 2908.878906 1829.410156 3458.351562 1829.410156 3458.351562 L 2119.671875 3458.351562 C 2119.671875 3458.351562 2119.671875 2908.878906 2119.671875 2819.691406 Z M 3159.328125 2979.828125 C 3159.328125 2842.628906 3048.101562 2731.410156 2910.910156 2731.410156 C 2910.898438 2731.410156 2910.898438 2731.410156 2910.898438 2731.410156 C 2773.699219 2731.410156 2662.480469 2842.628906 2662.480469 2979.828125 C 2662.480469 3132.5 2662.480469 3463.949219 2662.480469 3463.949219 L 3159.328125 3463.949219 C 3159.328125 3463.949219 3159.328125 3132.5 3159.328125 2979.828125 "/>
</svg>
